<?xml version="1.0" encoding="UTF-8" standalone="no"?>
<svg
   xmlns:dc="http://purl.org/dc/elements/1.1/"
   xmlns:cc="http://creativecommons.org/ns#"
   xmlns:rdf="http://www.w3.org/1999/02/22-rdf-syntax-ns#"
   xmlns:svg="http://www.w3.org/2000/svg"
   xmlns="http://www.w3.org/2000/svg"
   xmlns:sodipodi="http://sodipodi.sourceforge.net/DTD/sodipodi-0.dtd"
   xmlns:inkscape="http://www.inkscape.org/namespaces/inkscape"
   sodipodi:docname="Friendly old robot.svg"
   inkscape:version="1.0 (4035a4fb49, 2020-05-01)"
   id="svg8"
   version="1.1"
   viewBox="0 0 160 230"
   height="230mm"
   width="160mm">
  <defs
     id="defs2">
    <inkscape:path-effect
       only_selected="false"
       apply_with_weight="true"
       apply_no_weight="true"
       helper_size="0"
       steps="2"
       weight="33.333333"
       lpeversion="1"
       is_visible="true"
       id="path-effect876"
       effect="bspline" />
  </defs>
  <sodipodi:namedview
     inkscape:window-maximized="1"
     inkscape:window-y="-8"
     inkscape:window-x="1358"
     inkscape:window-height="1017"
     inkscape:window-width="1920"
     showgrid="false"
     inkscape:document-rotation="0"
     inkscape:current-layer="layer1"
     inkscape:document-units="mm"
     inkscape:cy="562.3742"
     inkscape:cx="576.48113"
     inkscape:zoom="0.7"
     inkscape:pageshadow="2"
     inkscape:pageopacity="0.0"
     borderopacity="1.0"
     bordercolor="#666666"
     pagecolor="#ffffff"
     id="base" />
  <metadata
     id="metadata5">
    <rdf:RDF>
      <cc:Work
         rdf:about="">
        <dc:format>image/svg+xml</dc:format>
        <dc:type
           rdf:resource="http://purl.org/dc/dcmitype/StillImage" />
        <dc:title></dc:title>
        <cc:license
           rdf:resource="http://creativecommons.org/licenses/by-sa/4.0/" />
        <dc:creator>
          <cc:Agent>
            <dc:title>Giacomo Alessandroni</dc:title>
          </cc:Agent>
        </dc:creator>
      </cc:Work>
      <cc:License
         rdf:about="http://creativecommons.org/licenses/by-sa/4.0/">
        <cc:permits
           rdf:resource="http://creativecommons.org/ns#Reproduction" />
        <cc:permits
           rdf:resource="http://creativecommons.org/ns#Distribution" />
        <cc:requires
           rdf:resource="http://creativecommons.org/ns#Notice" />
        <cc:requires
           rdf:resource="http://creativecommons.org/ns#Attribution" />
        <cc:permits
           rdf:resource="http://creativecommons.org/ns#DerivativeWorks" />
        <cc:requires
           rdf:resource="http://creativecommons.org/ns#ShareAlike" />
      </cc:License>
    </rdf:RDF>
  </metadata>
  <g
     id="layer1"
     inkscape:groupmode="layer"
     inkscape:label="Livello 1">
    <path
       sodipodi:nodetypes="sccccsscssccccsscss"
       d="m 22.393453,57.771262 h 15.49702 c 4.28373,-3.023809 8.06349,-3.023809 11.33929,0 h 13.60713 L 85.483423,53.8153 108.572,55.125429 c 7.31719,0.415204 13.22917,5.900209 13.22917,13.229167 l 2.64583,18.142855 -2.64583,27.970249 c -0.6902,7.29639 -5.90021,13.22235 -13.22917,13.22917 -9.372854,0.009 -16.580487,-0.52386 -21.922107,-1.52295 l -12.11299,0.17455 c -3.76159,2.73619 -12.43687,1.79374 -16.19846,-0.43518 -5.19734,-1.09716 -9.4319,-0.26879 -13.64323,0.60608 l -13.60831,-2.22429 c -7.23298,-1.18223 -16.63095,-2.49842 -16.63095,-9.82738 l -1.88988,-13.98513 1.88988,-32.127974 c 0.43037,-7.316311 0.60854,-10.583334 7.9375,-10.583334 z"
       inkscape:transform-center-y="-11.339286"
       inkscape:transform-center-x="5.2916667"
       style="fill:none;fill-rule:evenodd;stroke:#030000;stroke-width:2;stroke-linecap:butt;stroke-linejoin:round;stroke-miterlimit:4;stroke-dasharray:none;stroke-opacity:1"
       id="rect24" />
    <path
       sodipodi:nodetypes="csssssssccc"
       d="m 43.235893,87.260229 c -1.64519,-0.205836 -3.24911,-0.467952 -4.22655,-1.653789 -1.05293,-1.27743 -1.40918,-3.53582 -1.18765,-5.308112 0.21015,-1.681161 1.07109,-2.649497 2.29852,-3.628792 1.26772,-1.011443 2.92639,-2.003045 4.66276,-1.786205 1.78607,0.223045 3.82066,0.944422 4.79911,2.295717 0.89378,1.234352 0.82025,3.033432 0.61669,4.664951 -0.19269,1.5444 -1.17085,2.413627 -2.24166,3.381129 -1.29878,1.173488 -2.84516,2.268953 -4.7184,2.035453 v 0 z"
       style="font-variation-settings:normal;opacity:1;vector-effect:none;fill:none;fill-opacity:1;fill-rule:evenodd;stroke:#030000;stroke-width:2;stroke-linecap:butt;stroke-linejoin:miter;stroke-miterlimit:4;stroke-dasharray:none;stroke-dashoffset:0;stroke-opacity:1;stop-color:#000000;stop-opacity:1"
       id="path852" />
    <path
       id="path852-5"
       style="font-variation-settings:normal;opacity:1;vector-effect:none;fill:none;fill-opacity:1;fill-rule:evenodd;stroke:#030000;stroke-width:2;stroke-linecap:butt;stroke-linejoin:miter;stroke-miterlimit:4;stroke-dasharray:none;stroke-dashoffset:0;stroke-opacity:1;stop-color:#000000;stop-opacity:1"
       d="m 90.938483,88.280547 c -0.14122,1.077939 -0.31919,2.128604 -1.10044,2.764982 -0.8416,0.685529 -2.32374,0.910523 -3.48496,0.758533 -1.10151,-0.144183 -1.73316,-0.712367 -2.3706,-1.520899 -0.65836,-0.835084 -1.30223,-1.926418 -1.15345,-3.064104 0.15304,-1.170242 0.63378,-2.501555 1.52353,-3.137963 0.81274,-0.581335 1.99209,-0.526271 3.06107,-0.386587 1.01191,0.132143 1.57812,0.776889 2.20842,1.482668 0.7645,0.85605 1.4769,1.87416 1.31667,3.101511 v 0 z"
       sodipodi:nodetypes="csssssssccc" />
    <path
       sodipodi:nodetypes="cssc"
       inkscape:original-d="m 63.765273,91.534439 c 0,0 -0.71624,2.048854 -1.07475,3.072884 0.12745,1.000293 0.25463,2.000321 0.38155,3.000085 0.94405,0.448185 2.83135,1.343761 2.83135,1.343761"
       inkscape:path-effect="#path-effect876"
       id="path874"
       d="m 63.765273,91.534439 c -0.35825,1.024295 -0.716554,2.048744 -0.832042,3.060975 -0.115487,1.012231 0.0117,2.012259 0.547321,2.736163 0.535624,0.723903 1.479088,1.171672 2.422871,1.619592"
       style="fill:none;fill-rule:evenodd;stroke:#030000;stroke-width:2;stroke-linecap:round;stroke-linejoin:miter;stroke-miterlimit:4;stroke-dasharray:none;stroke-opacity:1" />
    <path
       sodipodi:nodetypes="cssczzc"
       id="path882"
       d="m 42.985063,108.50606 c 0,0 -1.21036,5.25718 0.34167,6.21837 1.9984,1.23764 5.31629,-0.0728 6.76539,0.20009 3.32231,0.62566 4.21601,1.32639 9.60515,1.31202 5.96674,0.16316 12.05058,-0.0173 14.15531,-1.29584 2.10474,-1.27853 16.22791,3.34761 17.19983,2.24004 0.97192,-1.10757 0.61735,-3.92835 0.30843,-6.8038"
       style="fill:none;fill-rule:evenodd;stroke:#030000;stroke-width:2;stroke-linecap:round;stroke-linejoin:miter;stroke-miterlimit:4;stroke-dasharray:none;stroke-opacity:1" />
    <path
       sodipodi:nodetypes="ccc"
       id="path884"
       d="m 101.01249,126.98816 2.33949,-15.95483 18.3547,1.82796"
       style="fill:none;fill-rule:evenodd;stroke:#030000;stroke-width:2;stroke-linecap:round;stroke-linejoin:round;stroke-miterlimit:4;stroke-dasharray:none;stroke-opacity:1" />
    <path
       sodipodi:nodetypes="cac"
       id="path890"
       d="m 62.836893,57.77126 c 0,0 -3.22616,-18.020805 -5.51014,-26.876017 -1.62829,-6.313038 -5.82914,-18.670113 -5.82914,-18.670113"
       style="fill:none;fill-rule:evenodd;stroke:#030000;stroke-width:2;stroke-linecap:round;stroke-linejoin:miter;stroke-miterlimit:4;stroke-dasharray:none;stroke-opacity:1" />
    <path
       sodipodi:nodetypes="csssssssccc"
       d="m 53.195003,9.5995351 c -0.0867,0.6614069 -0.19585,1.3060759 -0.67521,1.6965489 -0.51639,0.420631 -1.42581,0.558681 -2.13832,0.465423 -0.67587,-0.08847 -1.06344,-0.437094 -1.45456,-0.933201 -0.40396,-0.512393 -0.79903,-1.1820159 -0.70774,-1.8800849 0.0939,-0.718042 0.38888,-1.534919 0.93481,-1.925404 0.49869,-0.356702 1.22232,-0.322912 1.87823,-0.237206 0.62089,0.08108 0.96831,0.476688 1.35505,0.909743 0.46909,0.52526 0.90621,1.149956 0.80789,1.90304 v 0 z"
       style="font-variation-settings:normal;opacity:1;vector-effect:none;fill:none;fill-opacity:1;fill-rule:evenodd;stroke:#030000;stroke-width:2;stroke-linecap:butt;stroke-linejoin:miter;stroke-miterlimit:4;stroke-dasharray:none;stroke-dashoffset:0;stroke-opacity:1;stop-color:#000000;stop-opacity:1"
       id="path852-5-4" />
    <path
       style="fill:none;fill-rule:evenodd;stroke:#030000;stroke-width:2;stroke-linecap:square;stroke-linejoin:round;stroke-miterlimit:4;stroke-dasharray:none;stroke-opacity:1;paint-order:stroke fill markers"
       d="m 77.058263,55.219921 c 5.422,-13.459417 11.99193,-25.20492 15.50826,-25.714575 5.431899,-0.787297 9.627697,12.762578 7.37705,10.036103"
       id="path890-8"
       sodipodi:nodetypes="csc" />
    <path
       id="path852-5-4-7"
       style="font-variation-settings:normal;opacity:1;vector-effect:none;fill:none;fill-opacity:1;fill-rule:evenodd;stroke:#030000;stroke-width:2;stroke-linecap:butt;stroke-linejoin:miter;stroke-miterlimit:4;stroke-dasharray:none;stroke-dashoffset:0;stroke-opacity:1;stop-color:#000000;stop-opacity:1"
       d="m 102.10821,42.056449 c -0.0743,0.538193 -0.16806,1.062767 -0.57939,1.380499 -0.44311,0.342272 -1.22347,0.454604 -1.834867,0.378719 -0.579957,-0.07199 -0.912514,-0.355668 -1.248134,-0.759355 -0.346627,-0.416939 -0.685636,-0.961818 -0.607296,-1.529844 0.0806,-0.584278 0.333689,-1.248979 0.802146,-1.566721 0.427917,-0.290252 1.048854,-0.262757 1.611671,-0.193017 0.53278,0.06598 0.8309,0.387886 1.16276,0.740267 0.40252,0.42741 0.77761,0.935731 0.69324,1.548523 v 0 z"
       sodipodi:nodetypes="csssssssccc" />
    <path
       sodipodi:nodetypes="cssscsc"
       id="path939"
       d="m 13.852683,74.429191 c 0,0 -4.7089594,-0.84183 -6.7272585,-0.108891 -0.66391,0.241098 -0.9357,9.311682 -1.19592,9.729778 -1.57262,2.526731 0.70192,5.577376 0.79899,8.48578 0.0867,2.596929 -2.15871,5.026259 -0.95923,7.728862 0.49368,1.11234 2.1803897,0.71738 3.3984991,0.63862 1.8872794,-0.12202 3.3983094,-0.42077 3.3983094,-0.42077"
       style="fill:none;fill-rule:evenodd;stroke:#030000;stroke-width:2;stroke-linecap:butt;stroke-linejoin:miter;stroke-miterlimit:4;stroke-dasharray:none;stroke-opacity:1" />
    <path
       sodipodi:nodetypes="cccccc"
       id="path943"
       d="m 123.21859,102.5142 6.62641,-0.50435 0.42897,-10.734569 -0.84419,-8.183972 1.13834,-8.824893 -7.63301,-0.998132"
       style="fill:none;fill-rule:evenodd;stroke:#030000;stroke-width:2;stroke-linecap:butt;stroke-linejoin:round;stroke-miterlimit:4;stroke-dasharray:none;stroke-opacity:1" />
    <rect
       transform="matrix(0.94481594,0.32760165,-0.2565797,0.96652308,0,0)"
       rx="5.1794004"
       ry="1.0371501"
       y="34.804111"
       x="166.71292"
       height="21.673616"
       width="8.4015808"
       id="rect945"
       style="fill:none;fill-rule:evenodd;stroke:#030000;stroke-width:2.00276;stroke-linecap:butt;stroke-linejoin:miter;stroke-miterlimit:4;stroke-dasharray:none;stroke-opacity:1" />
    <path
       sodipodi:nodetypes="ccc"
       id="path947"
       d="m 146.42373,111.28131 -15.31294,41.8451 -27.51503,-25.26448"
       style="fill:none;fill-rule:evenodd;stroke:#030000;stroke-width:2;stroke-linecap:round;stroke-linejoin:round;stroke-miterlimit:4;stroke-dasharray:none;stroke-opacity:1" />
    <path
       style="fill:none;fill-rule:evenodd;stroke:#030000;stroke-width:2;stroke-linecap:round;stroke-linejoin:round;stroke-miterlimit:4;stroke-dasharray:none;stroke-opacity:1"
       d="m 107.46514,131.3428 2.11457,25.07862 -1.94343,17.36005 0.57991,31.5344 -15.520747,-2.02141 -23.04991,3.47117 -27.21802,0.46733 -18.11619,-2.61126 0.90404,-13.04698 -1.36726,-17.19595 2.19487,-18.69744 -1.70636,-12.08718 0.67562,-20.40426"
       id="path947-7"
       sodipodi:nodetypes="ccccccccccccc" />
    <path
       sodipodi:nodetypes="csssssssccc"
       d="m 32.684453,205.91635 c -0.0425,0.32421 -0.096,0.64023 -0.33098,0.83163 -0.25313,0.20619 -0.69892,0.27386 -1.04818,0.22815 -0.33131,-0.0434 -0.52129,-0.21426 -0.71301,-0.45745 -0.19802,-0.25117 -0.39168,-0.57941 -0.34693,-0.9216 0.046,-0.35198 0.19062,-0.7524 0.45824,-0.94381 0.24445,-0.17485 0.59916,-0.15829 0.92068,-0.11627 0.30436,0.0397 0.47466,0.23366 0.66423,0.44594 0.22994,0.25748 0.44422,0.5637 0.39602,0.93285 v 0 z"
       style="font-variation-settings:normal;opacity:1;vector-effect:none;fill:#ff0000;fill-opacity:1;fill-rule:evenodd;stroke:#030000;stroke-width:2;stroke-linecap:butt;stroke-linejoin:miter;stroke-miterlimit:4;stroke-dasharray:none;stroke-dashoffset:0;stroke-opacity:1;stop-color:#000000;stop-opacity:1"
       id="path852-5-5" />
    <path
       id="path852-5-5-9"
       style="font-variation-settings:normal;opacity:1;vector-effect:none;fill:#ff0000;fill-opacity:1;fill-rule:evenodd;stroke:#030000;stroke-width:2;stroke-linecap:butt;stroke-linejoin:miter;stroke-miterlimit:4;stroke-dasharray:none;stroke-dashoffset:0;stroke-opacity:1;stop-color:#000000;stop-opacity:1"
       d="m 95.668743,203.92979 c -0.0425,0.32421 -0.096,0.64023 -0.33098,0.83163 -0.25313,0.20619 -0.69892,0.27386 -1.04818,0.22815 -0.33131,-0.0434 -0.52129,-0.21426 -0.71302,-0.45745 -0.19801,-0.25117 -0.39167,-0.57941 -0.34692,-0.9216 0.046,-0.35198 0.19062,-0.7524 0.45823,-0.94381 0.24445,-0.17485 0.59917,-0.15829 0.92069,-0.11627 0.30435,0.0397 0.47466,0.23366 0.66423,0.44594 0.22994,0.25748 0.44421,0.5637 0.39602,0.93285 v 0 z"
       sodipodi:nodetypes="csssssssccc" />
    <path
       style="fill:none;fill-rule:evenodd;stroke:#030000;stroke-width:2;stroke-linecap:butt;stroke-linejoin:round;stroke-miterlimit:4;stroke-dasharray:none;stroke-opacity:1"
       d="m 24.850863,189.37508 12.57953,0.62956 -0.35231,-8.77193 1.63173,-8.57721 -0.0882,-7.05004 -0.0901,-8.06894 -2.72259,-0.89093 -4.6011,0.96872 -5.22301,0.058"
       id="path943-7"
       sodipodi:nodetypes="ccccccccc" />
    <path
       style="fill:none;fill-rule:evenodd;stroke:#030000;stroke-width:2;stroke-linecap:butt;stroke-linejoin:miter;stroke-miterlimit:4;stroke-dasharray:none;stroke-opacity:1"
       d="m 24.847613,131.76312 c 0,0 -10.9898,6.50808 -13.00809,7.24102 -0.66392,0.24109 -0.5348,12.91982 -0.79502,13.33792 -1.5726297,2.52673 -0.36716,7.84916 -0.27009,10.75757 0.0867,2.59693 -0.42146,5.5608 0.77802,8.2634 0.49368,1.11234 4.05128,2.45463 5.26939,2.37587 1.88728,-0.12202 7.00644,3.32101 7.00644,3.32101"
       id="path939-7"
       sodipodi:nodetypes="cssscsc" />
    <path
       id="path852-4"
       style="font-variation-settings:normal;opacity:1;vector-effect:none;fill:#000000;fill-opacity:1;fill-rule:evenodd;stroke:#030000;stroke-width:0.519399;stroke-linecap:butt;stroke-linejoin:miter;stroke-miterlimit:4;stroke-dasharray:none;stroke-dashoffset:0;stroke-opacity:1;stop-color:#000000;stop-opacity:1"
       d="m 21.626993,71.559491 c -0.42726,-0.05343 -0.8438,-0.121521 -1.09764,-0.42949 -0.27345,-0.331749 -0.36596,-0.918251 -0.30844,-1.378513 0.0546,-0.436599 0.27816,-0.688075 0.59693,-0.942398 0.32922,-0.262677 0.75998,-0.520192 1.21092,-0.463879 0.46384,0.05792 0.99222,0.245276 1.24632,0.596199 0.23212,0.320561 0.21302,0.787782 0.16017,1.211486 -0.05,0.40108 -0.30407,0.626819 -0.58215,0.878081 -0.3373,0.304753 -0.73889,0.589245 -1.22537,0.528605 v 0 z"
       sodipodi:nodetypes="csssssssccc" />
    <path
       sodipodi:nodetypes="csssssssccc"
       d="m 24.864713,65.212791 c -0.36534,-0.04569 -0.7215,-0.103902 -0.93856,-0.367244 -0.23381,-0.283669 -0.31292,-0.785171 -0.26373,-1.178728 0.0467,-0.373322 0.23784,-0.588353 0.51041,-0.805817 0.28151,-0.224608 0.64984,-0.444801 1.03542,-0.39665 0.39662,0.04953 0.84843,0.209729 1.0657,0.509794 0.19848,0.274102 0.18214,0.673609 0.13696,1.035906 -0.0428,0.342952 -0.26001,0.535975 -0.49779,0.750822 -0.28841,0.260586 -0.6318,0.503847 -1.04778,0.451995 v 0 z"
       style="font-variation-settings:normal;opacity:1;vector-effect:none;fill:#000000;fill-opacity:1;fill-rule:evenodd;stroke:#030000;stroke-width:0.444123;stroke-linecap:butt;stroke-linejoin:miter;stroke-miterlimit:4;stroke-dasharray:none;stroke-dashoffset:0;stroke-opacity:1;stop-color:#000000;stop-opacity:1"
       id="path852-4-1" />
    <path
       id="path852-4-1-0"
       style="font-variation-settings:normal;opacity:1;vector-effect:none;fill:#000000;fill-opacity:1;fill-rule:evenodd;stroke:#030000;stroke-width:0.545915;stroke-linecap:butt;stroke-linejoin:miter;stroke-miterlimit:4;stroke-dasharray:none;stroke-dashoffset:0;stroke-opacity:1;stop-color:#000000;stop-opacity:1"
       d="m 32.006353,65.728194 c -0.44907,-0.05616 -0.88687,-0.127716 -1.15367,-0.451414 -0.28741,-0.348685 -0.38465,-0.965129 -0.32418,-1.448888 0.0574,-0.458885 0.29236,-0.723201 0.62739,-0.990506 0.34604,-0.276088 0.79878,-0.546748 1.27274,-0.487561 0.48752,0.06088 1.04288,0.257798 1.30995,0.626637 0.24397,0.336925 0.22389,0.827997 0.16835,1.273331 -0.0526,0.421555 -0.3196,0.658818 -0.61188,0.922907 -0.35451,0.320311 -0.77661,0.619326 -1.28792,0.55559 v 0 z"
       sodipodi:nodetypes="csssssssccc" />
    <path
       sodipodi:nodetypes="csssssssccc"
       d="m 114.57266,120.84543 c -0.35392,-0.0443 -0.69895,-0.10065 -0.90922,-0.35576 -0.22651,-0.27481 -0.30314,-0.76063 -0.25549,-1.14189 0.0452,-0.36165 0.23041,-0.56996 0.49446,-0.78064 0.27271,-0.21758 0.62953,-0.43089 1.00306,-0.38425 0.38422,0.048 0.8219,0.20318 1.03239,0.49387 0.19227,0.26553 0.17645,0.65255 0.13268,1.00352 -0.0415,0.33224 -0.25188,0.51923 -0.48224,0.72736 -0.27939,0.25244 -0.61205,0.4881 -1.01502,0.43787 v 0 z"
       style="font-variation-settings:normal;opacity:1;vector-effect:none;fill:#000000;fill-opacity:1;fill-rule:evenodd;stroke:#030000;stroke-width:0.430243;stroke-linecap:butt;stroke-linejoin:miter;stroke-miterlimit:4;stroke-dasharray:none;stroke-dashoffset:0;stroke-opacity:1;stop-color:#000000;stop-opacity:1"
       id="path852-4-1-0-5" />
    <path
       sodipodi:nodetypes="csssssssccc"
       d="m 110.88049,124.50293 c -0.2871,-0.0359 -0.567,-0.0816 -0.73758,-0.2886 -0.18375,-0.22293 -0.24591,-0.61704 -0.20725,-0.92632 0.0367,-0.29337 0.18691,-0.46236 0.4011,-0.63326 0.22124,-0.17651 0.51069,-0.34955 0.81371,-0.31171 0.31168,0.0389 0.66674,0.16482 0.83749,0.40063 0.15597,0.21541 0.14314,0.52936 0.10763,0.81408 -0.0336,0.26951 -0.20433,0.4212 -0.3912,0.59004 -0.22665,0.20478 -0.4965,0.39595 -0.8234,0.3552 v 0 z"
       style="font-variation-settings:normal;opacity:1;vector-effect:none;fill:#000000;fill-opacity:1;fill-rule:evenodd;stroke:#030000;stroke-width:0.34902;stroke-linecap:butt;stroke-linejoin:miter;stroke-miterlimit:4;stroke-dasharray:none;stroke-dashoffset:0;stroke-opacity:1;stop-color:#000000;stop-opacity:1"
       id="path852-4-1-0-6" />
    <path
       sodipodi:nodetypes="csssssssccc"
       d="m 105.52216,126.01418 c -0.44907,-0.0562 -0.88687,-0.12771 -1.15367,-0.45141 -0.28741,-0.34869 -0.38464,-0.96513 -0.32418,-1.44889 0.0574,-0.45888 0.29236,-0.7232 0.6274,-0.99051 0.34603,-0.27608 0.79878,-0.54674 1.27273,-0.48756 0.48752,0.0609 1.04288,0.2578 1.30995,0.62664 0.24397,0.33693 0.2239,0.828 0.16835,1.27333 -0.0526,0.42156 -0.31959,0.65882 -0.61188,0.92291 -0.35451,0.32031 -0.7766,0.61932 -1.28792,0.55559 v 0 z"
       style="font-variation-settings:normal;opacity:1;vector-effect:none;fill:#000000;fill-opacity:1;fill-rule:evenodd;stroke:#030000;stroke-width:0.545915;stroke-linecap:butt;stroke-linejoin:miter;stroke-miterlimit:4;stroke-dasharray:none;stroke-dashoffset:0;stroke-opacity:1;stop-color:#000000;stop-opacity:1"
       id="path852-4-1-0-0" />
    <path
       sodipodi:nodetypes="csssssssccc"
       d="m 28.283563,163.2014 c -0.31989,-0.04 -0.63175,-0.091 -0.8218,-0.32155 -0.20473,-0.24839 -0.27399,-0.6875 -0.23092,-1.0321 0.0409,-0.32688 0.20825,-0.51516 0.44691,-0.70557 0.24649,-0.19666 0.569,-0.38946 0.90662,-0.34731 0.34727,0.0434 0.74287,0.18364 0.93312,0.44638 0.17379,0.24 0.15948,0.58981 0.11992,0.90704 -0.0375,0.30029 -0.22766,0.4693 -0.43586,0.65742 -0.25253,0.22817 -0.55321,0.44116 -0.91744,0.39576 v 0 z"
       style="font-variation-settings:normal;opacity:1;vector-effect:none;fill:#000000;fill-opacity:1;fill-rule:evenodd;stroke:#030000;stroke-width:0.388874;stroke-linecap:butt;stroke-linejoin:miter;stroke-miterlimit:4;stroke-dasharray:none;stroke-dashoffset:0;stroke-opacity:1;stop-color:#000000;stop-opacity:1"
       id="path852-4-1-0-2" />
    <path
       sodipodi:nodetypes="csssssssccc"
       d="m 32.387613,163.80848 c -0.24752,-0.0519 -0.48883,-0.11804 -0.63589,-0.41718 -0.15842,-0.32225 -0.21202,-0.89195 -0.17869,-1.33902 0.0316,-0.4241 0.16115,-0.66836 0.34582,-0.9154 0.19073,-0.25516 0.44028,-0.50529 0.70152,-0.45059 0.26871,0.0563 0.57482,0.23825 0.72203,0.57912 0.13448,0.31137 0.12341,0.7652 0.0928,1.17677 -0.029,0.38959 -0.17615,0.60887 -0.33726,0.85293 -0.1954,0.29602 -0.42806,0.57236 -0.70989,0.51346 v 0 z"
       style="font-variation-settings:normal;opacity:1;vector-effect:none;fill:#000000;fill-opacity:1;fill-rule:evenodd;stroke:#030000;stroke-width:0.38963;stroke-linecap:butt;stroke-linejoin:miter;stroke-miterlimit:4;stroke-dasharray:none;stroke-dashoffset:0;stroke-opacity:1;stop-color:#000000;stop-opacity:1"
       id="path852-4-1-0-24" />
    <path
       id="path852-4-1-0-24-6"
       style="font-variation-settings:normal;opacity:1;vector-effect:none;fill:#000000;fill-opacity:1;fill-rule:evenodd;stroke:#030000;stroke-width:0.347541;stroke-linecap:butt;stroke-linejoin:miter;stroke-miterlimit:4;stroke-dasharray:none;stroke-dashoffset:0;stroke-opacity:1;stop-color:#000000;stop-opacity:1"
       d="m 32.500333,168.42735 c -0.24752,-0.0413 -0.48883,-0.0939 -0.63589,-0.33191 -0.15842,-0.25639 -0.21202,-0.70966 -0.17869,-1.06535 0.0316,-0.33743 0.16115,-0.53176 0.34582,-0.72831 0.19073,-0.20301 0.44028,-0.40202 0.70152,-0.3585 0.26871,0.0448 0.57482,0.18955 0.72203,0.46076 0.13447,0.24773 0.12341,0.6088 0.0928,0.93626 -0.029,0.30996 -0.17615,0.48443 -0.33726,0.6786 -0.1954,0.23552 -0.42806,0.45538 -0.70989,0.40852 v 0 z"
       sodipodi:nodetypes="csssssssccc" />
    <path
       sodipodi:nodetypes="csssssssccc"
       d="m 32.429463,173.71276 c -0.24753,-0.054 -0.48884,-0.12267 -0.63589,-0.43361 -0.15842,-0.33495 -0.21202,-0.9271 -0.17869,-1.39178 0.0316,-0.44082 0.16114,-0.69469 0.34581,-0.95146 0.19073,-0.26522 0.44028,-0.5252 0.70153,-0.46835 0.26871,0.0585 0.57482,0.24763 0.72203,0.60194 0.13447,0.32364 0.12341,0.79534 0.0928,1.22313 -0.029,0.40494 -0.17616,0.63286 -0.33726,0.88653 -0.1954,0.30768 -0.42806,0.59491 -0.70989,0.53369 v 0 z"
       style="font-variation-settings:normal;opacity:1;vector-effect:none;fill:#000000;fill-opacity:1;fill-rule:evenodd;stroke:#030000;stroke-width:0.397233;stroke-linecap:butt;stroke-linejoin:miter;stroke-miterlimit:4;stroke-dasharray:none;stroke-dashoffset:0;stroke-opacity:1;stop-color:#000000;stop-opacity:1"
       id="path852-4-1-0-24-6-8" />
    <path
       id="path852-4-1-0-24-6-8-2"
       style="font-variation-settings:normal;opacity:1;vector-effect:none;fill:#000000;fill-opacity:1;fill-rule:evenodd;stroke:#030000;stroke-width:0.377615;stroke-linecap:butt;stroke-linejoin:miter;stroke-miterlimit:4;stroke-dasharray:none;stroke-dashoffset:0;stroke-opacity:1;stop-color:#000000;stop-opacity:1"
       d="m 32.311353,178.6627 c -0.24752,-0.0488 -0.48883,-0.11086 -0.63589,-0.39184 -0.15842,-0.30269 -0.21202,-0.8378 -0.17869,-1.25772 0.0316,-0.39835 0.16115,-0.62777 0.34582,-0.85981 0.19073,-0.23967 0.44028,-0.4746 0.70152,-0.42323 0.26871,0.0529 0.57482,0.22378 0.72203,0.54396 0.13448,0.29246 0.12341,0.71872 0.0928,1.1053 -0.029,0.36594 -0.17615,0.5719 -0.33726,0.80114 -0.1954,0.27804 -0.42806,0.5376 -0.70989,0.48228 v 0 z"
       sodipodi:nodetypes="csssssssccc" />
    <path
       sodipodi:nodetypes="csssssssccc"
       d="m 31.248273,183.75917 c -0.24752,-0.0351 -0.48883,-0.0799 -0.63589,-0.28227 -0.15842,-0.21805 -0.21201,-0.60353 -0.17869,-0.90603 0.0316,-0.28696 0.16115,-0.45223 0.34582,-0.61939 0.19073,-0.17265 0.44028,-0.34189 0.70152,-0.30488 0.26872,0.0381 0.57483,0.1612 0.72204,0.39185 0.13447,0.21068 0.1234,0.51775 0.0928,0.79623 -0.029,0.26362 -0.17616,0.41199 -0.33726,0.57713 -0.19541,0.20029 -0.42806,0.38727 -0.7099,0.34742 v 0 z"
       style="font-variation-settings:normal;opacity:1;vector-effect:none;fill:#000000;fill-opacity:1;fill-rule:evenodd;stroke:#030000;stroke-width:0.320501;stroke-linecap:butt;stroke-linejoin:miter;stroke-miterlimit:4;stroke-dasharray:none;stroke-dashoffset:0;stroke-opacity:1;stop-color:#000000;stop-opacity:1"
       id="path852-4-1-0-24-6-8-2-9" />
    <path
       id="path852-4-1-0-24-6-8-2-9-5"
       style="font-variation-settings:normal;opacity:1;vector-effect:none;fill:#000000;fill-opacity:1;fill-rule:evenodd;stroke:#030000;stroke-width:0.450665;stroke-linecap:butt;stroke-linejoin:miter;stroke-miterlimit:4;stroke-dasharray:none;stroke-dashoffset:0;stroke-opacity:1;stop-color:#000000;stop-opacity:1"
       d="m 28.045543,185.2134 c -0.30019,-0.0572 -0.59285,-0.13026 -0.7712,-0.46019 -0.19212,-0.35549 -0.25712,-0.98394 -0.2167,-1.47712 0.0384,-0.46783 0.19543,-0.73728 0.41939,-1.0098 0.23131,-0.28147 0.53396,-0.55739 0.85079,-0.49705 0.32589,0.0621 0.69713,0.26281 0.87566,0.63884 0.16309,0.34348 0.14967,0.8441 0.11253,1.29811 -0.0352,0.42978 -0.21363,0.67167 -0.40902,0.94091 -0.23698,0.32653 -0.51913,0.63137 -0.86093,0.5664 v 0 z"
       sodipodi:nodetypes="csssssssccc" />
    <path
       sodipodi:nodetypes="cccccccc"
       id="path1189"
       d="m 31.097613,205.74875 -0.0293,18.30647 -2.59299,0.34957 -1.73331,-0.65879 -1.02186,0.57341 -1.60707,-0.12409 -0.72767,-0.68607 -0.236,0.57154"
       style="fill:none;fill-rule:evenodd;stroke:#030000;stroke-width:2;stroke-linecap:round;stroke-linejoin:round;stroke-miterlimit:4;stroke-dasharray:none;stroke-opacity:1" />
    <path
       style="fill:none;fill-rule:evenodd;stroke:#030000;stroke-width:2;stroke-linecap:round;stroke-linejoin:round;stroke-miterlimit:4;stroke-dasharray:none;stroke-opacity:1"
       d="m 94.487563,205.01647 c -0.18145,6.28481 -0.87269,13.28334 -0.49042,18.77894 l 2.35676,-0.21739 2.111276,0.52238 1.399834,-0.0408 1.607067,-0.59656 0.72767,-0.68607 0.236,0.57154"
       id="path1189-9"
       sodipodi:nodetypes="cccccccc" />
    <path
       sodipodi:nodetypes="cccc"
       id="path1206"
       d="m 21.336233,175.92479 c -2.50281,5.78773 -5.0171,11.56233 -9.95579,14.56619 L 7.0373145,186.6824 c 5.1283585,-3.00322 7.0943185,-7.98295 9.4880685,-12.69531"
       style="fill:none;fill-rule:evenodd;stroke:#030000;stroke-width:2;stroke-linecap:butt;stroke-linejoin:round;stroke-miterlimit:4;stroke-dasharray:none;stroke-opacity:1" />
    <path
       sodipodi:nodetypes="ccccsccsssc"
       id="path1208"
       d="m 92.697203,144.72108 0.26727,33.00778 -4.23372,-0.0176 -11.2011,0.95309 c 0,0 -1.66139,-0.25198 -2.28974,-0.75265 -0.56423,-0.44957 -1.11795,-1.85323 -1.11795,-1.85323 l -1.13589,-22.38382 c 0,0 -0.31312,-3.91873 0.26726,-5.74629 0.288,-0.90685 0.70232,-1.94832 1.53681,-2.40543 1.89569,-1.03842 4.99704,-0.23257 7.88862,-0.15462 4.8553,0.13089 10.01844,-0.64719 10.01844,-0.64719 z"
       style="fill:none;fill-rule:evenodd;stroke:#030000;stroke-width:2;stroke-linecap:butt;stroke-linejoin:round;stroke-miterlimit:4;stroke-dasharray:none;stroke-opacity:1" />
    <path
       sodipodi:nodetypes="csssssssccc"
       d="m 89.335263,171.53691 c -0.14122,1.07793 -0.31919,2.1286 -1.10044,2.76498 -0.8416,0.68553 -1.72238,-0.0917 -2.8836,-0.24373 -1.10151,-0.14418 -0.5054,-2.06183 -2.97196,-0.51864 -0.90149,0.56401 -1.30223,-1.92642 -1.15345,-3.0641 0.15304,-1.17024 0.63378,-1.03158 1.52353,-1.66799 0.81274,-0.58133 2.05891,-0.86035 3.12789,-0.72066 1.01191,0.13214 1.5113,-0.35901 2.1416,0.34677 0.7645,0.85605 1.47666,1.87602 1.31643,3.10337 l -0.0666,-1.40503 z"
       style="font-variation-settings:normal;opacity:1;vector-effect:none;fill:none;fill-opacity:1;fill-rule:evenodd;stroke:#030000;stroke-width:2;stroke-linecap:butt;stroke-linejoin:miter;stroke-miterlimit:4;stroke-dasharray:none;stroke-dashoffset:0;stroke-opacity:1;stop-color:#000000;stop-opacity:1"
       id="path852-5-3" />
    <path
       id="path852-5-3-4"
       style="font-variation-settings:normal;opacity:1;vector-effect:none;fill:none;fill-opacity:1;fill-rule:evenodd;stroke:#030000;stroke-width:2;stroke-linecap:butt;stroke-linejoin:miter;stroke-miterlimit:4;stroke-dasharray:none;stroke-dashoffset:0;stroke-opacity:1;stop-color:#000000;stop-opacity:1"
       d="m 88.844443,153.22781 c -0.19751,1.10659 -0.44642,2.1852 -1.53909,2.8385 -1.17706,0.70375 -2.40893,-0.0941 -4.03302,-0.25021 -1.54058,-0.14802 -0.70686,-2.11665 -4.15661,-0.53243 -1.26083,0.579 -1.8213,-1.97764 -1.61322,-3.14557 0.21404,-1.20135 0.88641,-1.05901 2.13082,-1.71234 1.13671,-0.59678 2.87961,-0.88322 4.37469,-0.73982 1.41527,0.13566 2.11372,-0.36855 2.99526,0.35599 1.06924,0.87881 2.06527,1.9259 1.84117,3.18588 l -0.0932,-1.44238 z"
       sodipodi:nodetypes="csssssssccc" />
    <path
       sodipodi:nodetypes="csasssccc"
       d="m 84.005153,159.23213 c 0.82309,0.58998 0.5093,4.38534 -0.38578,4.78798 -3.72693,1.67647 -1.74261,0.71862 -2.6661,0.76729 -1.45144,0.0765 -4.41914,0.32007 -4.29382,-0.75883 0.11426,-0.98547 -0.3181,-3.43672 0.61247,-4.34527 0.88081,-0.86008 1.97133,-0.32031 3.05793,-0.5888 1.31799,-0.32556 2.73769,-0.53362 3.6753,0.13763 l -1.26283,-0.54188 z"
       style="font-variation-settings:normal;opacity:1;vector-effect:none;fill:none;fill-opacity:1;fill-rule:evenodd;stroke:#030000;stroke-width:2;stroke-linecap:butt;stroke-linejoin:miter;stroke-miterlimit:4;stroke-dasharray:none;stroke-dashoffset:0;stroke-opacity:1;stop-color:#000000;stop-opacity:1"
       id="path852-5-3-4-9" />
  </g>
</svg>
