<svg xmlns="http://www.w3.org/2000/svg" viewBox="0 0 200 240" role="img" aria-label="John McCarthy stilize portre">
  <defs>
    <linearGradient id="mc-bg" x1="0" y1="0" x2="0" y2="1">
      <stop offset="0" stop-color="#1e3a8a"/>
      <stop offset="1" stop-color="#4338ca"/>
    </linearGradient>
    <linearGradient id="mc-skin" x1="0" y1="0" x2="0" y2="1">
      <stop offset="0" stop-color="#fde68a"/>
      <stop offset="1" stop-color="#d97706"/>
    </linearGradient>
  </defs>
  <rect width="200" height="240" rx="18" fill="url(#mc-bg)"/>
  <g fill="#ffffff" opacity="0.1" font-family="monospace" font-size="10">
    <text x="12" y="22">LISP</text>
    <text x="160" y="28">AI</text>
    <text x="15" y="228">1956</text>
  </g>
  <!-- Vücut -->
  <path d="M 48 200 L 58 168 Q 100 158 142 168 L 152 200 L 152 240 L 48 240 Z" fill="#374151"/>
  <path d="M 72 173 L 95 195 L 100 173 L 105 195 L 128 173 L 128 180 L 105 200 L 100 180 L 95 200 L 72 180 Z" fill="#ffffff"/>
  <path d="M 95 200 L 100 222 L 105 200 Z" fill="#059669"/>
  <!-- Boyun -->
  <rect x="88" y="152" width="24" height="20" fill="url(#mc-skin)"/>
  <!-- Baş -->
  <ellipse cx="100" cy="112" rx="37" ry="46" fill="url(#mc-skin)"/>
  <!-- Sakal -->
  <path d="M 70 130 Q 75 160 100 165 Q 125 160 130 130 Q 125 135 100 137 Q 75 135 70 130 Z" fill="#9ca3af"/>
  <!-- Saç -->
  <path d="M 64 90 Q 70 65 100 63 Q 130 65 136 90 Q 136 75 128 73 Q 128 65 100 65 Q 72 65 72 73 Q 64 75 64 90 Z" fill="#9ca3af"/>
  <!-- Kaş -->
  <rect x="82" y="98" width="10" height="2" rx="1" fill="#6b7280"/>
  <rect x="108" y="98" width="10" height="2" rx="1" fill="#6b7280"/>
  <!-- Gözlük -->
  <g fill="none" stroke="#1f2937" stroke-width="1.5">
    <rect x="76" y="106" width="20" height="14" rx="3"/>
    <rect x="104" y="106" width="20" height="14" rx="3"/>
    <line x1="96" y1="113" x2="104" y2="113"/>
  </g>
  <circle cx="86" cy="113" r="2" fill="#1f2937"/>
  <circle cx="114" cy="113" r="2" fill="#1f2937"/>
  <!-- Ağız -->
  <path d="M 92 138 Q 100 142 108 138" fill="none" stroke="#78350f" stroke-width="1.5" stroke-linecap="round"/>

  <rect x="15" y="200" width="96" height="20" rx="10" fill="#ffffff" fill-opacity="0.12"/>
  <text x="63" y="214" text-anchor="middle" font-family="system-ui" font-size="10" font-weight="700" fill="#ffffff">John McCarthy</text>
</svg>
